<?xml version="1.0" encoding="utf-8"?>
<!-- Generator: Adobe Illustrator 15.0.0, SVG Export Plug-In . SVG Version: 6.00 Build 0)  -->
<!DOCTYPE svg PUBLIC "-//W3C//DTD SVG 1.1//EN" "http://www.w3.org/Graphics/SVG/1.1/DTD/svg11.dtd">
<svg version="1.1" id="Layer_1" xmlns="http://www.w3.org/2000/svg" xmlns:xlink="http://www.w3.org/1999/xlink" x="0px" y="0px"
	 width="642px" height="240px" viewBox="85.5 181.5 642 240" enable-background="new 85.5 181.5 642 240" xml:space="preserve">
<title>sticker-burst-1</title>
<path fill="#FFFFFF" d="M693.484,362.191H243.221c-2.212,0.002-4.006-2.475-4.007-5.53c0-0.002,0-0.003,0-0.005V243.344
	c-0.001-3.056,1.791-5.534,4.003-5.536c0.002,0,0.003,0,0.004,0h465.27c2.212,0,4.007,2.478,4.007,5.535
	c0,0.334-0.022,0.668-0.064,0.997l-15.006,113.304C697.082,360.276,695.422,362.191,693.484,362.191z"/>
<circle fill="#FFFFFF" cx="208.322" cy="300" r="107.322"/>
<linearGradient id="SVGID_1_" gradientUnits="userSpaceOnUse" x1="62.0981" y1="566.2617" x2="96.9312" y2="566.2617" gradientTransform="matrix(2.7043 0.0088 0.0088 -2.7043 -5.884 1855.2653)">
	<stop  offset="0" style="stop-color:#33A3DC"/>
	<stop  offset="1" style="stop-color:#005490"/>
</linearGradient>
<path fill="url(#SVGID_1_)" d="M252.865,353.949c-1.982-7.938-6.477-13.776-14.222-20.586l-0.032-0.029l0,0
	c-7.764-6.823-22.162-16.8-22.162-16.8l-13.792-9.595c0.158-4.185,0.642-8.35,1.447-12.459c1.032-5.076,4.246-9.441,8.787-11.935
	c3.324-2.201,10.872-4.597,15.301-6.885c3.466-2.083,6.648-4.606,9.465-7.507c2.291-2.511,5.322-4.227,8.654-4.898
	c2.48-0.609,4.985,0.907,5.595,3.387c0.044,0.182,0.078,0.365,0.101,0.551c0.781-2.906,0.551-5.991-0.655-8.749
	c-1.356-3.119-4.422-5.146-7.823-5.17c-3.851-0.229-7.687,0.637-11.066,2.496c-2.734,1.704-6.152,1.882-9.049,0.473
	c-3.924-1.788-8.148-2.824-12.454-3.056c-7.241,0.512-14.33,2.328-20.926,5.36c-8.456,3.786-10.071,5.695-17.421,9.292
	c-4.038,2.166-8.834,2.408-13.07,0.66c4.295,3.429,9.666,5.227,15.161,5.076c5.607-0.843,10.926-3.034,15.501-6.382
	c-0.859,0.885-1.575,1.9-2.12,3.007c-3.363,3.103-6.375,6.565-8.981,10.325c-3.345,5.542-5.293,11.814-5.679,18.276
	c-0.17,7.473,0.927,14.921,3.245,22.027c1.842,6.182,4.52,12.083,7.959,17.54c0.22,0.347,0.445,0.69,0.676,1.033
	c4.862,6.705,10.384,12.906,16.483,18.511c0,0,8.413,9.076,6.885,15.805s-5.26,9.936-14.333,13.827
	c-4.963,2.047-10.147,3.513-15.447,4.367c17.984,5.444,37.169,5.504,55.188,0.174l0,0l0.173-0.055
	c0.667-0.198,1.331-0.403,1.991-0.616l0.06-0.019c0.681-0.223,1.36-0.45,2.036-0.685l0.216-0.078
	c0.395-0.139,0.784-0.271,1.174-0.425c5.147-3.831,9.09-9.055,11.364-15.056C251.091,375.153,254.85,361.897,252.865,353.949z"/>
<linearGradient id="SVGID_2_" gradientUnits="userSpaceOnUse" x1="39.7993" y1="575.3652" x2="77.6153" y2="575.3652" gradientTransform="matrix(2.7043 0.0088 0.0088 -2.7043 -5.884 1855.2653)">
	<stop  offset="0" style="stop-color:#33A3DC"/>
	<stop  offset="1" style="stop-color:#005490"/>
</linearGradient>
<path fill="url(#SVGID_2_)" d="M155.898,284.226c-14.003-28.086-2.696-62.208,25.307-76.376
	c-18.246,5.059-34.584,15.411-46.953,29.748c-0.904,5.804-1.172,11.689-0.8,17.551c1.063,13.173,3.516,20.845,5.825,25.226
	c-4.965-5.604-8.465-12.35-10.19-19.636c-1.043-4.406-1.793-8.876-2.245-13.381c-7.184,10.83-12.075,23.015-14.374,35.805
	c1.673,4.862,3.841,9.539,6.471,13.958c3.833,5.823,8.226,11.258,13.116,16.226c0,0,5.612,4.946,7.518,6.158
	c-6.626-2.394-12.699-6.106-17.849-10.915c-3.986-4.007-7.552-8.412-10.642-13.146c-0.07,1.471-0.114,2.95-0.119,4.44
	c-0.063,13.776,2.854,27.403,8.554,39.946c1.244,0.827,2.434,1.495,3.407,2.033c2.705,1.518,15.261,5.879,15.956,6.185
	c0.695,0.306,15.364,4.474,20.891,5.495c-6.427,0.24-12.861-0.185-19.201-1.268c-5.612-1.169-12.359-2.661-16.632-3.879
	c12.185,20.905,31.81,36.441,54.952,43.505c5.301-0.854,10.484-2.32,15.447-4.367c9.06-3.892,12.789-7.096,14.333-13.827
	c1.544-6.731-6.888-15.794-6.888-15.794c-6.095-5.602-11.614-11.799-16.475-18.5c-5.659-2.459-10.798-5.973-15.144-10.353
	c-7.746-8.38-12.91-18.815-14.874-30.056c-0.329,7.924-0.254,15.86,0.225,23.776c0.723,4.844,1.954,9.599,3.672,14.185
	c-3.419-5.53-6.135-11.465-8.083-17.668c-1.965-7.56-1.872-15.508,0.271-23.019C152.767,291.711,154.949,286.432,155.898,284.226z"
	/>
<path fill="#0C2031" d="M238.573,390.623l-0.216,0.078L238.573,390.623z"/>
<path fill="#0C2031" d="M236.32,391.385l-0.059,0.02L236.32,391.385z"/>
<linearGradient id="SVGID_3_" gradientUnits="userSpaceOnUse" x1="59.2603" y1="541.959" x2="94.0872" y2="541.959" gradientTransform="matrix(2.7043 0.0088 0.0088 -2.7043 -5.884 1855.2653)">
	<stop  offset="0" style="stop-color:#408FCD"/>
	<stop  offset="1" style="stop-color:#09508B"/>
</linearGradient>
<path fill="url(#SVGID_3_)" d="M239.733,390.217l0.027-0.019c-0.389,0.144-0.779,0.286-1.173,0.425
	C238.957,390.49,239.341,390.365,239.733,390.217z"/>
<linearGradient id="SVGID_4_" gradientUnits="userSpaceOnUse" x1="59.2603" y1="541.7227" x2="94.0872" y2="541.7227" gradientTransform="matrix(2.7043 0.0088 0.0088 -2.7043 -5.884 1855.2653)">
	<stop  offset="0" style="stop-color:#408FCD"/>
	<stop  offset="1" style="stop-color:#09508B"/>
</linearGradient>
<path fill="url(#SVGID_4_)" d="M238.356,390.701c-0.676,0.234-1.355,0.462-2.037,0.684
	C237.001,391.163,237.68,390.936,238.356,390.701z"/>
<path fill="#091F35" d="M302.522,296.184c-3.105,4.669-6.677,9.011-10.661,12.959c-5.183,4.774-11.282,8.447-17.927,10.796
	c1.912-1.198,7.572-6.106,7.572-6.106c4.922-4.938,9.35-10.343,13.222-16.14c2.635-4.359,4.817-8.976,6.512-13.779
	c-2.197-12.817-6.995-25.048-14.098-35.941c-0.482,4.47-1.258,8.903-2.323,13.271c-1.772,7.274-5.316,13.997-10.317,19.568
	c2.353-4.365,4.838-12.021,5.988-25.186c0.413-5.825,0.192-11.677-0.66-17.454c-12.289-14.47-28.597-24.964-46.858-30.153
	c27.883,14.331,38.983,48.472,24.858,76.459c0.903,2.164,3.085,7.532,4.465,12.151c2.095,7.525,2.139,15.474,0.127,23.022
	c-1.99,6.189-4.745,12.106-8.2,17.613c1.748-4.575,3.009-9.321,3.765-14.16c0.53-7.912,0.656-15.848,0.378-23.773
	c-2.039,11.228-7.272,21.629-15.074,29.956c-1.456,1.463-3.01,2.824-4.652,4.075c7.746,6.81,12.24,12.648,14.222,20.586
	c1.982,7.938-1.779,21.204-1.779,21.204c-2.269,5.993-6.203,11.214-11.339,15.045c20.77-7.635,38.271-22.2,49.549-41.239
	c-4.284,1.188-10.988,2.624-16.572,3.749c-6.344,1.041-12.778,1.425-19.201,1.144c5.533-0.987,20.223-5.063,20.926-5.36
	c0.703-0.297,13.284-4.581,16.004-6.079c0.938-0.52,2.104-1.157,3.315-1.947c5.801-12.52,8.82-26.147,8.849-39.945
	C302.614,299.067,302.582,297.623,302.522,296.184z"/>
<path fill="#091F35" d="M185.311,339.402c-0.232-0.344-0.454-0.687-0.676-1.033l0,0c1.5,2.738,3.233,5.342,5.179,7.783
	c4.642,5.166,8.702,10.825,12.107,16.878c1.794,3.343,2.684,7.098,2.58,10.891c-0.393,3.893-2.401,7.442-5.536,9.784
	c-2.986,2.324-6.361,4.101-9.968,5.243c-3.376,1.237-6.849,2.195-10.382,2.864l0.297,0.089c5.3-0.854,10.484-2.32,15.447-4.367
	c9.06-3.892,12.789-7.096,14.333-13.827c1.544-6.731-3.846-12.771-6.907-15.794C195.601,352.396,190.073,346.186,185.311,339.402z"
	/>
<path fill="#091F35" d="M202.656,306.939l0.189-3.245c-5.752-3.939-10.489-9.185-13.825-15.307
	c-3.257-5.745-3.5-12.719-0.652-18.676c-2.607,3.332-4.381,12.781,0.189,21.464C192.216,297.276,197,302.626,202.656,306.939z"/>
<g>
	<g>
		<path fill-rule="evenodd" clip-rule="evenodd" fill="#FFFFFF" d="M490.486,253.609c-21.818,1.931-22.561,21.637-26.244,43.285
			c-0.898,5.286-1.844,10.629-2.727,15.678c-1.994,11.417-4.525,24.463,5.113,29.651c13.109,7.057,28.715-1.295,33.4-11.588
			c3.926-8.625,4.797-21.017,6.476-30.333c0.937-5.198,1.834-10.567,2.727-15.678c1.465-8.384,3.504-17.531-0.341-23.858
			c-2.639-4.341-7.499-6.394-12.951-7.157c62.256,0,124.516,0,186.771,0c0,30.333,0,60.667,0,91c-122.357,0-244.711,0-367.067,0
			c0-30.333,0-60.667,0-91C373.924,253.609,432.207,253.609,490.486,253.609z M368.812,296.894c-7.839,0-15.678,0-23.517,0
			c-0.822,4.405-1.218,9.234-3.067,12.61c-8.426,0.019-18.606-0.023-25.903,0c13.254,4.242,26.346,8.646,39.876,12.611
			c1.258-3.627,1.625-8.145,3.067-11.588c2.389,0.224,5.676-0.451,7.498,0.34c-1.784,10.827-4.042,21.18-5.453,32.379
			c4.771,0,9.543,0,14.314,0c2.287-10.778,3.735-22.395,6.135-33.061c17.944,1.748,27.08-5.813,30.333-19.085
			c1.812-7.392,3.61-15.932,3.067-22.495c-1.408-17.012-19.245-13.883-38.172-13.974
			C373.62,268.074,372.326,283.594,368.812,296.894z M422.321,254.632c-5.687,29.078-10.81,58.718-15.678,88.614
			c4.771,0,9.543,0,14.314,0c2.485-12.283,4.359-25.179,6.816-37.49c4.772,0.227,10.451-0.453,14.655,0.34
			c-2.172,12.256-4.361,24.496-6.475,36.81c4.33,0.781,10.1,0.124,14.996,0.341c4.837-29.699,10.371-58.703,15.336-88.273
			c-4.33-0.781-10.1-0.124-14.996-0.341c-2.039,12.843-4.037,25.727-6.816,37.832c-4.658-0.227-10.223,0.453-14.314-0.341
			c2.057-12.485,4.32-24.764,6.477-37.15C432.531,254.192,426.99,254.848,422.321,254.632z M520.138,254.632
			c-5.687,29.078-10.81,58.718-15.678,88.614c12.725,0,25.448,0,38.173,0c0.956-4.156,1.542-8.683,2.386-12.951
			c-7.277-0.79-16.015-0.118-23.858-0.341c1.801-8.084,2.631-17.137,4.771-24.88c6.249,0,12.497,0,18.746,0
			c0.396-4.717,1.703-8.522,2.045-13.292c-6.136-0.227-13.178,0.454-18.746-0.341c1.626-7.69,2.55-16.082,4.431-23.517
			c7.839,0,15.679,0,23.518,0c0.681-4.223,2.157-9.405,2.045-13.292C545.359,254.632,532.748,254.632,520.138,254.632z
			 M563.764,254.632c-6.075,28.689-10.54,58.988-16.019,88.273c3.766,0.778,8.962,0.126,13.292,0.341
			c3.684-19.947,6.683-40.578,10.906-59.985c1.494,20.319,3.695,39.93,5.453,59.985c4.999,0,9.997,0,14.996,0
			c5-29.65,10.671-58.63,15.337-88.614c-4.316,0-8.634,0-12.951,0c-2.968,16.346-5.524,33.102-8.861,49.079
			c-1.351-16.486-3.149-32.523-4.431-49.079C575.579,254.632,569.671,254.632,563.764,254.632z M598.868,343.246
			c4.771,0,9.543,0,14.314,0c5.417-29.233,10.429-58.873,15.679-88.273c-4.105-0.78-9.646-0.125-14.315-0.341
			C608.859,283.709,603.735,313.35,598.868,343.246z M634.314,254.632c-0.343-0.001-0.406,0.276-0.682,0.341
			c2.021,14.451,4.44,28.505,6.816,42.603c-7.566,15.157-16.56,30.701-23.177,45.67c4.545,0,9.089,0,13.634,0
			c5.533-11.166,10.593-22.808,17.041-33.061c1.291,11.32,3.151,22.07,4.771,33.061c5.008-0.218,10.893,0.441,15.337-0.341
			c-2.535-14.96-4.851-30.142-7.498-44.989c7.222-14.363,14.912-28.259,21.813-42.944c-3.767-0.778-8.962-0.126-13.292-0.341
			c-5.388,10.29-10.338,21.018-16.019,31.015c-1.378-10.438-3.012-20.62-4.431-31.015
			C643.857,254.632,639.086,254.632,634.314,254.632z"/>
		<path fill-rule="evenodd" clip-rule="evenodd" d="M490.486,253.609c1.818,0,3.635,0,5.453,0
			c5.452,0.764,10.313,2.816,12.951,7.157c3.845,6.327,1.806,15.474,0.341,23.858c-0.893,5.11-1.79,10.479-2.727,15.678
			c-1.679,9.317-2.55,21.708-6.476,30.333c-4.686,10.293-20.291,18.645-33.4,11.588c-9.639-5.188-7.107-18.234-5.113-29.651
			c0.883-5.049,1.828-10.393,2.727-15.678C467.926,275.246,468.668,255.54,490.486,253.609z M480.943,284.284
			c-1.867,10.223-3.231,19.306-5.112,30.333c-0.819,4.801-2.966,12.46-0.682,14.996c1.034,1.148,5.522,1.917,8.18,0.682
			c3.559-1.656,4.632-8.276,5.453-12.951c1.886-10.741,3.644-21.392,5.453-31.697c0.765-4.357,3.507-12.764,1.704-16.36
			c-1.398-2.789-6.047-2.07-7.498-1.704C482.527,269.074,482.172,277.556,480.943,284.284z"/>
		<path fill-rule="evenodd" clip-rule="evenodd" d="M376.992,254.632c18.927,0.091,36.764-3.039,38.172,13.974
			c0.543,6.563-1.256,15.103-3.067,22.495c-3.253,13.273-12.389,20.833-30.333,19.085c-2.4,10.666-3.849,22.282-6.135,33.061
			c-4.771,0-9.543,0-14.314,0c1.411-11.199,3.669-21.552,5.453-32.379c-1.822-0.791-5.109-0.116-7.498-0.34
			c-1.442,3.443-1.809,7.961-3.067,11.588c-13.531-3.965-26.623-8.369-39.876-12.611c7.296-0.023,17.477,0.019,25.903,0
			c1.849-3.376,2.246-8.205,3.067-12.61c7.839,0,15.678,0,23.517,0C372.326,283.594,373.62,268.074,376.992,254.632z
			 M388.921,267.924c-1.548,9.813-3.253,19.47-5.112,28.97c5.131-0.295,8.979,0.857,11.588-1.704
			c4.198-4.121,4.038-18.984,4.431-25.221C397.993,267.486,393.193,267.968,388.921,267.924z"/>
		<path fill-rule="evenodd" clip-rule="evenodd" d="M436.637,254.973c-2.156,12.386-4.42,24.665-6.477,37.15
			c4.092,0.794,9.656,0.114,14.314,0.341c2.779-12.104,4.777-24.989,6.816-37.832c4.896,0.217,10.666-0.44,14.996,0.341
			c-4.965,29.571-10.499,58.574-15.336,88.273c-4.896-0.217-10.666,0.44-14.996-0.341c2.113-12.313,4.303-24.554,6.475-36.81
			c-4.204-0.793-9.883-0.113-14.655-0.34c-2.457,12.312-4.331,25.207-6.816,37.49c-4.771,0-9.543,0-14.314,0
			c4.868-29.896,9.991-59.537,15.678-88.614C426.99,254.848,432.531,254.192,436.637,254.973z"/>
		<path fill-rule="evenodd" clip-rule="evenodd" d="M557.97,254.632c0.112,3.887-1.364,9.069-2.045,13.292
			c-7.839,0-15.679,0-23.518,0c-1.881,7.435-2.805,15.827-4.431,23.517c5.568,0.794,12.61,0.114,18.746,0.341
			c-0.342,4.771-1.649,8.576-2.045,13.292c-6.249,0-12.497,0-18.746,0c-2.141,7.743-2.971,16.796-4.771,24.88
			c7.844,0.223,16.581-0.449,23.858,0.341c-0.844,4.269-1.43,8.795-2.386,12.951c-12.725,0-25.448,0-38.173,0
			c4.868-29.896,9.991-59.537,15.678-88.614C532.748,254.632,545.359,254.632,557.97,254.632z"/>
		<path fill-rule="evenodd" clip-rule="evenodd" d="M581.486,254.632c1.281,16.556,3.08,32.593,4.431,49.079
			c3.337-15.977,5.894-32.733,8.861-49.079c4.317,0,8.635,0,12.951,0c-4.666,29.984-10.337,58.964-15.337,88.614
			c-4.999,0-9.997,0-14.996,0c-1.758-20.055-3.959-39.666-5.453-59.985c-4.224,19.407-7.223,40.038-10.906,59.985
			c-4.33-0.215-9.526,0.438-13.292-0.341c5.479-29.285,9.943-59.584,16.019-88.273C569.671,254.632,575.579,254.632,581.486,254.632
			z"/>
		<path fill-rule="evenodd" clip-rule="evenodd" d="M614.546,254.632c4.669,0.216,10.21-0.439,14.315,0.341
			c-5.25,29.401-10.262,59.04-15.679,88.273c-4.771,0-9.543,0-14.314,0C603.735,313.35,608.859,283.709,614.546,254.632z"/>
		<path fill-rule="evenodd" clip-rule="evenodd" d="M648.629,254.632c1.419,10.396,3.053,20.578,4.431,31.015
			c5.681-9.997,10.631-20.725,16.019-31.015c4.33,0.214,9.525-0.437,13.292,0.341c-6.9,14.685-14.591,28.581-21.813,42.944
			c2.647,14.847,4.963,30.029,7.498,44.989c-4.444,0.782-10.329,0.123-15.337,0.341c-1.62-10.99-3.48-21.74-4.771-33.061
			c-6.448,10.253-11.508,21.895-17.041,33.061c-4.545,0-9.089,0-13.634,0c6.617-14.97,15.61-30.514,23.177-45.67
			c-2.376-14.098-4.795-28.152-6.816-42.603c0.275-0.065,0.339-0.342,0.682-0.341C639.086,254.632,643.857,254.632,648.629,254.632z
			"/>
		<path fill-rule="evenodd" clip-rule="evenodd" fill="#FFFFFF" d="M488.441,267.583c1.451-0.366,6.1-1.084,7.498,1.704
			c1.803,3.596-0.939,12.003-1.704,16.36c-1.81,10.305-3.567,20.956-5.453,31.697c-0.821,4.675-1.895,11.295-5.453,12.951
			c-2.657,1.235-7.146,0.467-8.18-0.682c-2.284-2.536-0.138-10.195,0.682-14.996c1.881-11.027,3.245-20.111,5.112-30.333
			C482.172,277.556,482.527,269.074,488.441,267.583z"/>
		<path fill-rule="evenodd" clip-rule="evenodd" fill="#FFFFFF" d="M399.827,269.969c-0.393,6.237-0.232,21.101-4.431,25.221
			c-2.609,2.561-6.457,1.409-11.588,1.704c1.859-9.5,3.564-19.157,5.112-28.97C393.193,267.968,397.993,267.486,399.827,269.969z"/>
	</g>
</g>
</svg>
