<?xml version="1.0" encoding="utf-8"?>
<!-- Generator: Adobe Illustrator 15.0.0, SVG Export Plug-In . SVG Version: 6.00 Build 0)  -->
<!DOCTYPE svg PUBLIC "-//W3C//DTD SVG 1.1//EN" "http://www.w3.org/Graphics/SVG/1.1/DTD/svg11.dtd">
<svg version="1.1" id="Layer_1" xmlns="http://www.w3.org/2000/svg" xmlns:xlink="http://www.w3.org/1999/xlink" x="0px" y="0px"
	 width="707px" height="240px" viewBox="85.5 181.5 707 240" enable-background="new 85.5 181.5 707 240" xml:space="preserve">
<title>sticker-burst-1</title>
<path fill="#FFFFFF" d="M756.833,362.191H243.78c-2.521,0.002-4.565-2.475-4.566-5.53c0-0.002,0-0.003,0-0.005V243.344
	c-0.001-3.056,2.041-5.534,4.561-5.536c0.003,0,0.004,0,0.005,0h530.152c2.521,0,4.565,2.478,4.565,5.535
	c0,0.334-0.025,0.668-0.073,0.997l-17.099,113.304C760.933,360.276,759.041,362.191,756.833,362.191z"/>
<circle fill="#FFFFFF" cx="208.322" cy="300" r="107.322"/>
<linearGradient id="SVGID_1_" gradientUnits="userSpaceOnUse" x1="62.0981" y1="566.2617" x2="96.9312" y2="566.2617" gradientTransform="matrix(2.7043 0.0088 0.0088 -2.7043 -5.884 1855.2653)">
	<stop  offset="0" style="stop-color:#33A3DC"/>
	<stop  offset="1" style="stop-color:#005490"/>
</linearGradient>
<path fill="url(#SVGID_1_)" d="M252.865,353.949c-1.982-7.938-6.477-13.776-14.222-20.586l-0.032-0.029l0,0
	c-7.764-6.823-22.162-16.8-22.162-16.8l-13.792-9.595c0.158-4.185,0.642-8.35,1.447-12.459c1.032-5.076,4.246-9.441,8.787-11.935
	c3.324-2.201,10.872-4.597,15.301-6.885c3.466-2.083,6.648-4.606,9.465-7.507c2.291-2.511,5.322-4.227,8.654-4.898
	c2.48-0.609,4.985,0.907,5.595,3.387c0.044,0.182,0.078,0.365,0.101,0.551c0.781-2.906,0.551-5.991-0.655-8.749
	c-1.356-3.119-4.422-5.146-7.823-5.17c-3.851-0.229-7.687,0.637-11.066,2.496c-2.734,1.704-6.152,1.882-9.049,0.473
	c-3.924-1.788-8.148-2.824-12.454-3.056c-7.241,0.512-14.33,2.328-20.926,5.36c-8.456,3.786-10.071,5.695-17.421,9.292
	c-4.038,2.166-8.834,2.408-13.07,0.66c4.295,3.429,9.666,5.227,15.161,5.076c5.607-0.843,10.926-3.034,15.501-6.382
	c-0.859,0.885-1.575,1.9-2.12,3.007c-3.363,3.103-6.375,6.565-8.981,10.325c-3.345,5.542-5.293,11.814-5.679,18.276
	c-0.17,7.473,0.927,14.921,3.245,22.027c1.842,6.182,4.52,12.083,7.959,17.54c0.22,0.347,0.445,0.69,0.676,1.033
	c4.862,6.705,10.384,12.906,16.483,18.511c0,0,8.413,9.076,6.885,15.805s-5.26,9.936-14.333,13.827
	c-4.963,2.047-10.147,3.513-15.447,4.367c17.984,5.444,37.169,5.504,55.188,0.174l0,0l0.173-0.055
	c0.667-0.198,1.331-0.403,1.991-0.616l0.06-0.019c0.681-0.223,1.36-0.45,2.036-0.685l0.216-0.078
	c0.395-0.139,0.784-0.271,1.174-0.425c5.147-3.831,9.09-9.055,11.364-15.056C251.091,375.153,254.85,361.897,252.865,353.949z"/>
<linearGradient id="SVGID_2_" gradientUnits="userSpaceOnUse" x1="39.7993" y1="575.3652" x2="77.6153" y2="575.3652" gradientTransform="matrix(2.7043 0.0088 0.0088 -2.7043 -5.884 1855.2653)">
	<stop  offset="0" style="stop-color:#33A3DC"/>
	<stop  offset="1" style="stop-color:#005490"/>
</linearGradient>
<path fill="url(#SVGID_2_)" d="M155.898,284.226c-14.003-28.086-2.696-62.208,25.307-76.376
	c-18.246,5.059-34.584,15.411-46.953,29.748c-0.904,5.804-1.172,11.689-0.8,17.551c1.063,13.173,3.516,20.845,5.825,25.226
	c-4.965-5.604-8.465-12.35-10.19-19.636c-1.043-4.406-1.793-8.876-2.245-13.381c-7.184,10.83-12.075,23.015-14.374,35.805
	c1.673,4.862,3.841,9.539,6.471,13.958c3.833,5.823,8.226,11.258,13.116,16.226c0,0,5.612,4.946,7.518,6.158
	c-6.626-2.394-12.699-6.106-17.849-10.915c-3.986-4.007-7.552-8.412-10.642-13.146c-0.07,1.471-0.114,2.95-0.119,4.44
	c-0.063,13.776,2.854,27.403,8.554,39.946c1.244,0.827,2.434,1.495,3.407,2.033c2.705,1.518,15.261,5.879,15.956,6.185
	c0.695,0.306,15.364,4.474,20.891,5.495c-6.427,0.24-12.861-0.185-19.201-1.268c-5.612-1.169-12.359-2.661-16.632-3.879
	c12.185,20.905,31.81,36.441,54.952,43.505c5.301-0.854,10.484-2.32,15.447-4.367c9.06-3.892,12.789-7.096,14.333-13.827
	c1.544-6.731-6.888-15.794-6.888-15.794c-6.095-5.602-11.614-11.799-16.475-18.5c-5.659-2.459-10.798-5.973-15.144-10.353
	c-7.746-8.38-12.91-18.815-14.874-30.056c-0.329,7.924-0.254,15.86,0.225,23.776c0.723,4.844,1.954,9.599,3.672,14.185
	c-3.419-5.53-6.135-11.465-8.083-17.668c-1.965-7.56-1.872-15.508,0.271-23.019C152.767,291.711,154.949,286.432,155.898,284.226z"
	/>
<path fill="#0C2031" d="M238.573,390.623l-0.216,0.078L238.573,390.623z"/>
<path fill="#0C2031" d="M236.32,391.385l-0.059,0.02L236.32,391.385z"/>
<linearGradient id="SVGID_3_" gradientUnits="userSpaceOnUse" x1="59.2603" y1="541.959" x2="94.0872" y2="541.959" gradientTransform="matrix(2.7043 0.0088 0.0088 -2.7043 -5.884 1855.2653)">
	<stop  offset="0" style="stop-color:#408FCD"/>
	<stop  offset="1" style="stop-color:#09508B"/>
</linearGradient>
<path fill="url(#SVGID_3_)" d="M239.733,390.217l0.027-0.019c-0.389,0.144-0.779,0.286-1.173,0.425
	C238.957,390.49,239.341,390.365,239.733,390.217z"/>
<linearGradient id="SVGID_4_" gradientUnits="userSpaceOnUse" x1="59.2603" y1="541.7227" x2="94.0872" y2="541.7227" gradientTransform="matrix(2.7043 0.0088 0.0088 -2.7043 -5.884 1855.2653)">
	<stop  offset="0" style="stop-color:#408FCD"/>
	<stop  offset="1" style="stop-color:#09508B"/>
</linearGradient>
<path fill="url(#SVGID_4_)" d="M238.356,390.701c-0.676,0.234-1.355,0.462-2.037,0.684
	C237.001,391.163,237.68,390.936,238.356,390.701z"/>
<path fill="#091F35" d="M302.522,296.184c-3.105,4.669-6.677,9.011-10.661,12.959c-5.183,4.774-11.282,8.447-17.927,10.796
	c1.912-1.198,7.572-6.106,7.572-6.106c4.922-4.938,9.35-10.343,13.222-16.14c2.635-4.359,4.817-8.976,6.512-13.779
	c-2.197-12.817-6.995-25.048-14.098-35.941c-0.482,4.47-1.258,8.903-2.323,13.271c-1.772,7.274-5.316,13.997-10.317,19.568
	c2.353-4.365,4.838-12.021,5.988-25.186c0.413-5.825,0.192-11.677-0.66-17.454c-12.289-14.47-28.597-24.964-46.858-30.153
	c27.883,14.331,38.983,48.472,24.858,76.459c0.903,2.164,3.085,7.532,4.465,12.151c2.095,7.525,2.139,15.474,0.127,23.022
	c-1.99,6.189-4.745,12.106-8.2,17.613c1.748-4.575,3.009-9.321,3.765-14.16c0.53-7.912,0.656-15.848,0.378-23.773
	c-2.039,11.228-7.272,21.629-15.074,29.956c-1.456,1.463-3.01,2.824-4.652,4.075c7.746,6.81,12.24,12.648,14.222,20.586
	c1.982,7.938-1.779,21.204-1.779,21.204c-2.269,5.993-6.203,11.214-11.339,15.045c20.77-7.635,38.271-22.2,49.549-41.239
	c-4.284,1.188-10.988,2.624-16.572,3.749c-6.344,1.041-12.778,1.425-19.201,1.144c5.533-0.987,20.223-5.063,20.926-5.36
	c0.703-0.297,13.284-4.581,16.004-6.079c0.938-0.52,2.104-1.157,3.315-1.947c5.801-12.52,8.82-26.147,8.849-39.945
	C302.614,299.067,302.582,297.623,302.522,296.184z"/>
<path fill="#091F35" d="M185.311,339.402c-0.232-0.344-0.454-0.687-0.676-1.033l0,0c1.5,2.738,3.233,5.342,5.179,7.783
	c4.642,5.166,8.702,10.825,12.107,16.878c1.794,3.343,2.684,7.098,2.58,10.891c-0.393,3.893-2.401,7.442-5.536,9.784
	c-2.986,2.324-6.361,4.101-9.968,5.243c-3.376,1.237-6.849,2.195-10.382,2.864l0.297,0.089c5.3-0.854,10.484-2.32,15.447-4.367
	c9.06-3.892,12.789-7.096,14.333-13.827c1.544-6.731-3.846-12.771-6.907-15.794C195.601,352.396,190.073,346.186,185.311,339.402z"
	/>
<path fill="#091F35" d="M202.656,306.939l0.189-3.245c-5.752-3.939-10.489-9.185-13.825-15.307
	c-3.257-5.745-3.5-12.719-0.652-18.676c-2.607,3.332-4.381,12.781,0.189,21.464C192.216,297.276,197,302.626,202.656,306.939z"/>
<g>
	<g>
		<path fill-rule="evenodd" clip-rule="evenodd" fill="#FFFFFF" d="M517.84,251.188c-23.446,2.11-24.347,22.966-28.412,46.862
			c-1.026,6.037-1.95,11.728-2.951,17.342c-2.149,12.047-4.826,25.514,5.165,31.364c11.737,6.873,28.483,0.777,34.316-8.118
			c5.154-7.86,7.197-25.651,9.225-36.898c1.155-6.408,2.086-12.854,3.321-19.926c1.401-8.021,2.902-15.972-0.369-22.139
			c-2.775-5.233-8.097-7.611-14.391-8.487c70.97,0,141.937,0,212.907,0c0,32.84,0,65.68,0,98.521c-138.003,0-276.002,0-414.007,0
			c0-32.841,0-65.68,0-98.521C387.71,251.188,452.774,251.188,517.84,251.188z M380.576,298.049c-8.61,0-17.22,0-25.83,0
			c-0.889,4.769-1.319,9.997-3.321,13.653c-9.122,0.02-20.144-0.027-28.043,0c14.349,4.592,28.523,9.359,43.172,13.652
			c1.362-3.927,1.76-8.817,3.321-12.546c2.709,0.243,6.392-0.487,8.487,0.369c-2.319,12.118-4.308,22.659-5.904,35.054
			c5.166,0,10.332,0,15.498,0c2.476-11.669,4.044-24.245,6.642-35.792c3.869-0.346,7.355,0.457,11.438,0
			c18.599-2.08,23.771-23.617,24.723-41.327c1.224-22.779-20.199-18.61-41.327-18.818
			C385.782,266.848,384.38,283.65,380.576,298.049z M441.09,252.294c-6.156,31.481-11.703,63.57-16.973,95.937
			c5.165,0,10.331,0,15.497,0c2.691-13.299,4.72-27.259,7.38-40.589c5.167,0.245,11.314-0.49,15.866,0.369
			c-2.352,13.269-4.722,26.52-7.011,39.852c4.689,0.846,10.936,0.134,16.236,0.368c5.236-32.153,11.228-63.553,16.604-95.568
			c-4.689-0.846-10.937-0.134-16.236-0.369c-2.208,13.904-4.371,27.853-7.38,40.958c-5.043-0.245-11.068,0.491-15.497-0.369
			c2.227-13.517,4.677-26.81,7.011-40.22C452.144,251.819,446.146,252.528,441.09,252.294z M552.525,252.294
			c-6.157,31.481-11.704,63.57-16.974,95.937c13.775,0,27.551,0,41.327,0c1.035-4.499,1.669-9.399,2.583-14.021
			c-7.878-0.854-17.338-0.127-25.83-0.369c1.95-8.751,2.849-18.553,5.166-26.936c6.765,0,13.53,0,20.295,0
			c0.429-5.106,1.844-9.226,2.214-14.391c-6.643-0.245-14.267,0.491-20.295-0.369c1.761-8.326,2.761-17.411,4.797-25.46
			c8.487,0,16.974,0,25.461,0c0.737-4.572,2.336-10.182,2.214-14.391C579.83,252.294,566.178,252.294,552.525,252.294z
			 M602.339,252.294c-6.577,31.06-11.411,63.863-17.343,95.569c4.078,0.842,9.703,0.137,14.391,0.368
			c3.988-21.595,7.235-43.931,11.808-64.942c1.631,21.985,3.993,43.239,5.904,64.942c5.412,0,10.823,0,16.235,0
			c5.413-32.101,11.553-63.476,16.604-95.937c-4.674,0-9.348,0-14.021,0c-3.213,17.697-5.981,35.838-9.594,53.134
			c-1.462-17.848-3.41-35.211-4.797-53.134C615.131,252.294,608.734,252.294,602.339,252.294z M643.297,348.231
			c5.166,0,10.332,0,15.497,0c5.865-31.648,11.291-63.737,16.974-95.568c-4.443-0.845-10.442-0.135-15.497-0.369
			C654.113,283.775,648.566,315.864,643.297,348.231z M684.255,252.294c-0.37-0.001-0.439,0.299-0.738,0.369
			c2.189,15.646,4.809,30.86,7.38,46.124c-8.191,16.409-17.927,33.238-25.092,49.444c4.92,0,9.84,0,14.76,0
			c5.991-12.089,11.469-24.692,18.45-35.792c1.386,12.268,3.438,23.867,5.165,35.792c5.423-0.235,11.794,0.479,16.605-0.368
			c-2.745-16.197-5.251-32.633-8.118-48.707c7.819-15.55,16.145-30.594,23.615-46.493c-4.077-0.842-9.703-0.137-14.391-0.369
			c-5.833,11.141-11.192,22.755-17.343,33.578c-1.491-11.3-3.26-22.324-4.797-33.578
			C694.586,252.294,689.421,252.294,684.255,252.294z"/>
		<path fill-rule="evenodd" clip-rule="evenodd" d="M517.84,251.188c1.969,0,3.937,0,5.904,0c6.294,0.876,11.615,3.254,14.391,8.487
			c3.271,6.167,1.771,14.119,0.369,22.139c-1.235,7.072-2.166,13.518-3.321,19.926c-2.027,11.247-4.07,29.038-9.225,36.898
			c-5.833,8.896-22.579,14.991-34.316,8.118c-9.991-5.851-7.314-19.317-5.165-31.364c1.001-5.614,1.925-11.306,2.951-17.342
			C493.493,274.153,494.394,253.298,517.84,251.188z M507.509,284.396c-2.022,11.075-3.439,20.91-5.535,32.84
			c-0.91,5.185-3.197,13.506-0.738,16.236c1.12,1.243,5.98,2.075,8.856,0.737c3.853-1.792,5.015-8.96,5.903-14.021
			c2.043-11.628,3.944-23.16,5.904-34.316c0.828-4.717,3.796-13.819,1.845-17.711c-1.514-3.02-6.547-2.241-8.118-1.845
			C509.224,267.93,508.839,277.112,507.509,284.396z"/>
		<path fill-rule="evenodd" clip-rule="evenodd" d="M389.432,252.294c21.128,0.208,42.551-3.961,41.327,18.818
			c-0.952,17.71-6.124,39.247-24.723,41.327c-4.083,0.457-7.569-0.346-11.438,0c-2.598,11.547-4.167,24.123-6.642,35.792
			c-5.166,0-10.332,0-15.498,0c1.596-12.395,3.585-22.936,5.904-35.054c-2.095-0.856-5.777-0.126-8.487-0.369
			c-1.561,3.729-1.958,8.619-3.321,12.546c-14.649-4.293-28.823-9.061-43.172-13.652c7.899-0.027,18.921,0.02,28.043,0
			c2.002-3.656,2.432-8.884,3.321-13.653c8.61,0,17.22,0,25.83,0C384.38,283.65,385.782,266.848,389.432,252.294z M402.346,266.685
			c-1.675,10.625-3.521,21.078-5.534,31.364c5.556-0.32,9.721,0.928,12.546-1.845c4.545-4.46,4.371-20.553,4.797-27.305
			C412.169,266.21,406.973,266.733,402.346,266.685z"/>
		<path fill-rule="evenodd" clip-rule="evenodd" d="M456.588,252.664c-2.334,13.41-4.784,26.703-7.011,40.22
			c4.429,0.86,10.454,0.124,15.497,0.369c3.009-13.105,5.172-27.054,7.38-40.958c5.3,0.235,11.547-0.477,16.236,0.369
			c-5.377,32.015-11.368,63.415-16.604,95.568c-5.301-0.234-11.547,0.478-16.236-0.368c2.289-13.332,4.659-26.583,7.011-39.852
			c-4.552-0.859-10.699-0.124-15.866-0.369c-2.66,13.33-4.688,27.29-7.38,40.589c-5.166,0-10.332,0-15.497,0
			c5.27-32.367,10.816-64.456,16.973-95.937C446.146,252.528,452.144,251.819,456.588,252.664z"/>
		<path fill-rule="evenodd" clip-rule="evenodd" d="M593.483,252.294c0.122,4.208-1.477,9.819-2.214,14.391
			c-8.487,0-16.974,0-25.461,0c-2.036,8.049-3.036,17.135-4.797,25.46c6.028,0.86,13.652,0.124,20.295,0.369
			c-0.37,5.165-1.785,9.285-2.214,14.391c-6.765,0-13.53,0-20.295,0c-2.317,8.383-3.216,18.185-5.166,26.936
			c8.492,0.242,17.952-0.485,25.83,0.369c-0.914,4.622-1.548,9.522-2.583,14.021c-13.776,0-27.552,0-41.327,0
			c5.27-32.367,10.816-64.456,16.974-95.937C566.178,252.294,579.83,252.294,593.483,252.294z"/>
		<path fill-rule="evenodd" clip-rule="evenodd" d="M621.526,252.294c1.387,17.923,3.335,35.287,4.797,53.134
			c3.612-17.296,6.381-35.438,9.594-53.134c4.674,0,9.348,0,14.021,0c-5.052,32.461-11.191,63.836-16.604,95.937
			c-5.412,0-10.823,0-16.235,0c-1.911-21.703-4.273-42.957-5.904-64.942c-4.572,21.011-7.819,43.347-11.808,64.942
			c-4.688-0.231-10.313,0.474-14.391-0.368c5.932-31.706,10.766-64.509,17.343-95.569
			C608.734,252.294,615.131,252.294,621.526,252.294z"/>
		<path fill-rule="evenodd" clip-rule="evenodd" d="M660.271,252.294c5.055,0.234,11.054-0.476,15.497,0.369
			c-5.683,31.831-11.108,63.919-16.974,95.568c-5.165,0-10.331,0-15.497,0C648.566,315.864,654.113,283.775,660.271,252.294z"/>
		<path fill-rule="evenodd" clip-rule="evenodd" d="M699.752,252.294c1.537,11.254,3.306,22.278,4.797,33.578
			c6.15-10.823,11.51-22.438,17.343-33.578c4.688,0.232,10.313-0.473,14.391,0.369c-7.471,15.899-15.796,30.942-23.615,46.493
			c2.867,16.074,5.373,32.51,8.118,48.707c-4.812,0.847-11.183,0.133-16.605,0.368c-1.727-11.925-3.779-23.524-5.165-35.792
			c-6.981,11.1-12.459,23.703-18.45,35.792c-4.92,0-9.84,0-14.76,0c7.165-16.206,16.9-33.035,25.092-49.444
			c-2.571-15.263-5.19-30.478-7.38-46.124c0.299-0.07,0.368-0.37,0.738-0.369C689.421,252.294,694.586,252.294,699.752,252.294z"/>
		<path fill-rule="evenodd" clip-rule="evenodd" fill="#FFFFFF" d="M515.626,266.316c1.571-0.396,6.604-1.174,8.118,1.845
			c1.951,3.893-1.017,12.995-1.845,17.711c-1.96,11.156-3.861,22.688-5.904,34.316c-0.889,5.062-2.051,12.229-5.903,14.021
			c-2.876,1.338-7.736,0.506-8.856-0.737c-2.459-2.73-0.172-11.052,0.738-16.236c2.096-11.93,3.513-21.765,5.535-32.84
			C508.839,277.112,509.224,267.93,515.626,266.316z"/>
		<path fill-rule="evenodd" clip-rule="evenodd" fill="#FFFFFF" d="M414.154,268.899c-0.426,6.752-0.252,22.845-4.797,27.305
			c-2.825,2.773-6.99,1.525-12.546,1.845c2.014-10.286,3.859-20.74,5.534-31.364C406.973,266.733,412.169,266.21,414.154,268.899z"
			/>
	</g>
</g>
</svg>
